{"title":"In.Time.2011.R5.Proper.LINE.XViD-MiSTERE","uid":6862097,"size":1261689920,"categoryP":"video","categoryS":"movies","magnet":"?xt=urn:btih:5ed0fec64c77717e17bf7dadcb73824b9bbe7b3b&amp;dn=In.Time.2011.R5.Proper.LINE.XViD-MiSTERE&amp;tr=udp%3A%2F%2Ftracker.openbittorrent.com%3A80&amp;tr=udp%3A%2F%2Fopen.demonii.com%3A1337&amp;tr=udp%3A%2F%2Ftracker.coppersurfer.tk%3A6969&amp;tr=udp%3A%2F%2Fexodus.desync.com%3A6969","seeders":0,"leechers":1,"uploader":"sceneline","files":70,"time":1322937136,"description":"- &lt;a href=&quot;\nhttp://www.Speed.Cd&quot; rel=&quot;nofollow&quot; target=&quot;_NEW&quot;&gt;\nhttp://www.Speed.Cd&lt;/a&gt;      fast  and The Hottest Private Tracker on the net\n\n   signup is open now\n\nPlease Seed back to make the speed Faster!!!\n\n------------------nfo--------------------------\n-In Time 2011 R5 PROPER LiNE XviD - MiSTERE &lt;a href=&quot;\nhttp://www.imdb.com/title/tt0905372/&quot; rel=&quot;nofollow&quot; target=&quot;_NEW&quot;&gt;\nhttp://www.imdb.com/title/tt0905372/&lt;/a&gt;\n\nVideo\nID                               : 0\nFormat                           : MPEG-4 Visual\nFormat profile                   : Advanced Simple@L5\nFormat settings, BVOP            : 2\nFormat settings, QPel            : No\nFormat settings, GMC             : No warppoints\nFormat settings, Matrix          : Default (H.263)\nMuxing mode                      : Packed bitstream\nCodec ID                         : XVID\nCodec ID/Hint                    : XviD\nDuration                         : 1h 44mn\nBit rate                         : 1 478 Kbps\nWidth                            : 720 pixels\nHeight                           : 304 pixels\nDisplay aspect ratio             : 2.35:1\nFrame rate                       : 25.000 fps\nColor space                      : YUV\nChroma subsampling               : 4:2:0\nBit depth                        : 8 bits\nScan type                        : Progressive\nCompression mode                 : Lossy\nBits/(Pixel*Frame)               : 0.270\nStream size                      : 1.08 GiB (91%)\nWriting library                  : XviD 58\n\nAudio\nID                               : 1\nFormat                           : MPEG Audio\nFormat version                   : Version 1\nFormat profile                   : Layer 3\nMode                             : Joint stereo\nMode extension                   : MS Stereo\nCodec ID                         : 55\nCodec ID/Hint                    : MP3\nDuration                         : 1h 44mn\nBit rate mode                    : Constant\nBit rate                         : 128 Kbps\nChannel(s)                       : 2 channels\nSampling rate                    : 44.1 KHz\nCompression mode                 : Lossy\nStream size                      : 95.9 MiB (8%)\nAlignment                        : Split accross interleaves\nInterleave, duration             : 40 ms (1.00 video frame)\n\n\nShouldnt have done this, \nbut noone can manage to do it \nright on their own so here it is\nFULL PROPER LiNE\ncomplete, so watch this \nor mux to your prefered video\nFYI if going to use or sources, site them properly\namateur hour is exactly why we left\nGREETZ to NOONE YOU ALL STILL SUCK\n\n\n\n[IMG]http://i.imgur.com/d50NO.png[/IMG]\n[IMG]http://i.imgur.com/ryvJM.png[/IMG]\n[IMG]http://i.imgur.com/8JqFx.png[/IMG]\n[IMG]http://i.imgur.com/opHKG.png[/IMG]","torrent":{"xt":"urn:btih:5ed0fec64c77717e17bf7dadcb73824b9bbe7b3b","amp;dn":"In.Time.2011.R5.Proper.LINE.XViD-MiSTERE","amp;tr":["udp%3A%2F%2Ftracker.openbittorrent.com%3A80","udp%3A%2F%2Fopen.demonii.com%3A1337","udp%3A%2F%2Ftracker.coppersurfer.tk%3A6969","udp%3A%2F%2Fexodus.desync.com%3A6969"],"infoHash":"5ed0fec64c77717e17bf7dadcb73824b9bbe7b3b","infoHashBuffer":{"type":"Buffer","data":[94,208,254,198,76,119,113,126,23,191,125,173,203,115,130,75,155,190,123,59]},"announce":[],"urlList":[]}}